<svg width="27" height="24" viewBox="0 0 27 24" fill="none" xmlns="http://www.w3.org/2000/svg">
<path d="M23.8359 3.75H3.16406C3.04805 3.75 2.95312 3.83437 2.95312 3.9375V5.4375C2.95312 5.54062 3.04805 5.625 3.16406 5.625H23.8359C23.952 5.625 24.0469 5.54062 24.0469 5.4375V3.9375C24.0469 3.83437 23.952 3.75 23.8359 3.75ZM23.8359 18.375H3.16406C3.04805 18.375 2.95312 18.4594 2.95312 18.5625V20.0625C2.95312 20.1656 3.04805 20.25 3.16406 20.25H23.8359C23.952 20.25 24.0469 20.1656 24.0469 20.0625V18.5625C24.0469 18.4594 23.952 18.375 23.8359 18.375ZM23.8359 11.0625H3.16406C3.04805 11.0625 2.95312 11.1469 2.95312 11.25V12.75C2.95312 12.8531 3.04805 12.9375 3.16406 12.9375H23.8359C23.952 12.9375 24.0469 12.8531 24.0469 12.75V11.25C24.0469 11.1469 23.952 11.0625 23.8359 11.0625Z" fill="#555555"/>
</svg>