<svg width="16" height="16" viewBox="0 0 16 16" fill="none" xmlns="http://www.w3.org/2000/svg">
<g clip-path="url(#clip0_512_2073)">
<path d="M5.84692 7.45979H6.76846L6.30769 6.04102L5.84692 7.45979Z" fill="black"/>
<path d="M8 0C3.58154 0 0 3.06012 0 6.83547C0 9.27623 1.49769 11.4202 3.75 12.6273C3.62769 13.0849 2.96231 15.5732 2.93615 15.7691C2.93615 15.7691 2.92 15.9158 3.00769 15.9717C3.03703 15.9877 3.06909 15.9971 3.10189 15.9992C3.13469 16.0014 3.16755 15.9963 3.19846 15.9842C3.45077 15.9458 6.12154 13.916 6.58308 13.5667C7.05255 13.6374 7.52602 13.6722 8 13.6709C12.4185 13.6709 16 10.6108 16 6.83547C16 3.06012 12.4185 0 8 0ZM4.04077 5.7743C4.03077 6.74127 4.04846 7.75826 4.03385 8.71022C4.02923 9.01448 3.86769 9.10535 3.64923 9.19204C3.62455 9.20149 3.59796 9.20351 3.57231 9.19787C3.32231 9.14452 3.12308 9.04783 3.11692 8.71106C3.09923 7.75992 3.12231 6.74127 3.11 5.7743C2.89846 5.76513 2.59692 5.78347 2.40077 5.7743C2.12846 5.75513 1.93923 5.56757 1.95077 5.28832C1.96231 5.00907 2.1 4.80817 2.40538 4.80317C3.12692 4.7915 4.02077 4.7915 4.74231 4.80317C5.05 4.80817 5.18692 5.0099 5.19615 5.28832C5.20539 5.56674 5.01923 5.75513 4.74769 5.7743C4.55385 5.78347 4.25308 5.76513 4.04077 5.7743ZM7.91769 9.14619C7.82542 9.1917 7.72523 9.21529 7.62385 9.21538C7.43154 9.21538 7.28462 9.13202 7.23923 8.99448L7.00846 8.34594H5.60385L5.37308 8.99448C5.32846 9.13035 5.18154 9.21538 4.98846 9.21538C4.88732 9.21538 4.78736 9.19178 4.69538 9.14619C4.56769 9.08284 4.44538 8.90778 4.58538 8.43597L5.69231 5.28665C5.73873 5.14793 5.82187 5.02712 5.93133 4.93934C6.04079 4.85157 6.1717 4.80072 6.30769 4.79316C6.44358 4.80153 6.57424 4.85279 6.68359 4.94062C6.79293 5.02845 6.87618 5.14902 6.92308 5.28749L8.02615 8.43514C8.16692 8.90778 8.04462 9.08617 7.91769 9.14619ZM10.25 9.14619H8.76923C8.65455 9.14865 8.54364 9.1018 8.46075 9.01588C8.37787 8.92997 8.32975 8.81198 8.32692 8.68772V5.29332C8.33184 5.16148 8.38363 5.03681 8.47145 4.94541C8.55927 4.85401 8.67631 4.80296 8.79808 4.80296C8.91984 4.80296 9.03688 4.85401 9.1247 4.94541C9.21252 5.03681 9.26431 5.16148 9.26923 5.29332V8.23174H10.25C10.3077 8.22797 10.3655 8.23703 10.4199 8.25836C10.4742 8.2797 10.524 8.31285 10.5661 8.3558C10.6082 8.39874 10.6417 8.45056 10.6646 8.50807C10.6875 8.56558 10.6994 8.62757 10.6994 8.69022C10.6994 8.75286 10.6875 8.81485 10.6646 8.87236C10.6417 8.92987 10.6082 8.98169 10.5661 9.02463C10.524 9.06758 10.4742 9.10074 10.4199 9.12207C10.3655 9.14341 10.3077 9.15246 10.25 9.14869V9.14619ZM13.8654 8.76941C13.8534 8.86807 13.8145 8.96061 13.7537 9.03518C13.6929 9.10976 13.6129 9.16298 13.524 9.18804C13.4352 9.2131 13.3414 9.20886 13.2548 9.17587C13.1681 9.14287 13.0926 9.08262 13.0377 9.00281L11.9554 7.44983L11.7954 7.62322V8.71439C11.7954 8.84704 11.7468 8.97426 11.6602 9.06805C11.5736 9.16185 11.4563 9.21455 11.3338 9.21455C11.2114 9.21455 11.094 9.16185 11.0075 9.06805C10.9209 8.97426 10.8723 8.84704 10.8723 8.71439V5.29666C10.8723 5.16401 10.9209 5.03679 11.0075 4.94299C11.094 4.84919 11.2114 4.7965 11.3338 4.7965C11.4563 4.7965 11.5736 4.84919 11.6602 4.94299C11.7468 5.03679 11.7954 5.16401 11.7954 5.29666V6.36866L13.0831 4.97322C13.1168 4.9371 13.1568 4.90862 13.2008 4.88944C13.2448 4.87026 13.2918 4.86077 13.3392 4.86152C13.4545 4.8648 13.5646 4.91409 13.6483 4.99994C13.7321 5.08579 13.7836 5.20215 13.7931 5.32666C13.7972 5.38223 13.7904 5.43811 13.773 5.49058C13.7556 5.54305 13.7281 5.5909 13.6923 5.63093L12.6385 6.77045L13.7746 8.40179C13.8482 8.5076 13.88 8.64071 13.8631 8.77191L13.8654 8.76941Z" fill="black"/>
</g>
<defs>
<clipPath id="clip0_512_2073">
<rect width="16" height="16" fill="white"/>
</clipPath>
</defs>
</svg>
