<svg width="181" height="26" viewBox="0 0 181 26" fill="none" xmlns="http://www.w3.org/2000/svg">
<path d="M135.193 24.6167C129.126 16.8 128 15.9977 128 13.125C128 9.18996 131.589 6 136.017 6C140.444 6 144.034 9.18996 144.034 13.125C144.034 15.9977 142.908 16.8 136.841 24.6167C136.443 25.1278 135.591 25.1278 135.193 24.6167ZM136.017 16.0937C137.862 16.0937 139.357 14.7646 139.357 13.125C139.357 11.4854 137.862 10.1562 136.017 10.1562C134.172 10.1562 132.677 11.4854 132.677 13.125C132.677 14.7646 134.172 16.0937 136.017 16.0937Z" fill="#DEDE26"/>
<path d="M16.74 19.048H9.3V1.75H1.86V25H16.74V19.048ZM25.5369 18.676V19.978C25.9089 20.0193 26.2809 20.0503 26.6529 20.071C27.0249 20.0917 27.3969 20.102 27.7689 20.102C30.0835 20.102 32.4189 19.73 34.7749 18.986L35.6429 24.442C32.8529 25.186 30.1042 25.558 27.3969 25.558C23.9249 25.558 21.4139 24.752 19.8639 23.14C18.3139 21.5073 17.5389 19.0273 17.5389 15.7C17.5389 12.3727 18.3139 9.903 19.8639 8.291C21.4345 6.65833 23.9455 5.842 27.3969 5.842C29.1329 5.842 30.5795 5.95567 31.7369 6.183C32.8942 6.38967 33.8242 6.75133 34.5269 7.268C35.2502 7.764 35.7565 8.446 36.0459 9.314C36.3559 10.1613 36.5109 11.236 36.5109 12.538C36.5109 13.6127 36.3249 14.5427 35.9529 15.328C35.6015 16.0927 35.0022 16.723 34.1549 17.219C33.3075 17.715 32.1812 18.087 30.7759 18.335C29.3705 18.5623 27.6242 18.676 25.5369 18.676ZM25.5369 12.848V14.367H27.0559C27.9652 14.367 28.6162 14.274 29.0089 14.088C29.4222 13.902 29.6289 13.468 29.6289 12.786V11.267H28.1099C27.2005 11.267 26.5392 11.36 26.1259 11.546C25.7332 11.732 25.5369 12.166 25.5369 12.848ZM39.5366 11.205H37.6766V6.4H39.5366V3.424L46.9766 1.564V6.4H49.5496V11.205H46.9766V19.668C47.2866 19.73 47.6276 19.792 47.9996 19.854C48.3716 19.8953 48.7643 19.9263 49.1776 19.947L48.8366 25.403C45.4473 25.403 43.236 25.217 42.2026 24.845C41.3346 24.535 40.6733 24.1423 40.2186 23.667C39.764 23.171 39.5366 22.4477 39.5366 21.497V11.205ZM51.1118 1.75V7.423H53.7158L52.5688 12.538H55.4828L57.0328 6.741V1.75H51.1118ZM61.3572 7.144C62.9486 6.276 65.1289 5.842 67.8982 5.842C70.6882 5.842 73.2406 6.22433 75.5552 6.989L74.6872 12.042C73.7159 11.7527 72.7549 11.546 71.8042 11.422C70.8536 11.298 69.8822 11.236 68.8902 11.236C68.6009 11.236 68.2392 11.2463 67.8052 11.267C67.3919 11.2877 66.9166 11.329 66.3792 11.391V12.569C67.5159 12.569 68.6836 12.631 69.8822 12.755C71.0809 12.8583 72.1659 13.127 73.1372 13.561C74.1292 13.9743 74.9352 14.6047 75.5552 15.452C76.1959 16.2787 76.5162 17.4153 76.5162 18.862C76.5162 19.8747 76.4026 20.784 76.1752 21.59C75.9479 22.3753 75.5966 23.0057 75.1212 23.481C74.6252 23.9563 74.1086 24.3387 73.5712 24.628C73.0546 24.9173 72.3726 25.124 71.5252 25.248C70.8639 25.3513 70.1509 25.4237 69.3862 25.465C68.6422 25.527 67.8362 25.558 66.9682 25.558C63.9302 25.558 61.1506 25.1963 58.6292 24.473L59.5592 19.203C60.6132 19.513 61.6982 19.7507 62.8142 19.916C63.9302 20.0813 65.0979 20.164 66.3172 20.164C66.8752 20.164 67.4022 20.1537 67.8982 20.133C68.4149 20.1123 68.9109 20.071 69.3862 20.009V18.831C67.4022 18.831 65.7386 18.707 64.3952 18.459C63.0726 18.1903 61.9979 17.7873 61.1712 17.25C60.3652 16.7127 59.7866 16.01 59.4352 15.142C59.1046 14.274 58.9392 13.2407 58.9392 12.042C58.9392 9.64467 59.7452 8.012 61.3572 7.144ZM86.4798 24.597L87.5338 18.459C89.8071 19.017 91.8635 19.296 93.7028 19.296C94.6328 19.296 95.4491 19.2857 96.1518 19.265C96.8751 19.2237 97.5158 19.1617 98.0738 19.079V17.219L94.7258 16.94C93.2171 16.7953 91.9565 16.5473 90.9438 16.196C89.9311 15.8447 89.1148 15.3693 88.4948 14.77C87.8955 14.15 87.4615 13.4163 87.1928 12.569C86.9448 11.701 86.8208 10.6883 86.8208 9.531C86.8208 7.93967 86.9861 6.617 87.3168 5.563C87.6475 4.48833 88.1745 3.63067 88.8978 2.99C89.6211 2.32867 90.5511 1.86367 91.6878 1.595C92.8451 1.32633 94.2505 1.192 95.9038 1.192C99.1898 1.192 102.166 1.502 104.832 2.122L103.902 8.074C101.587 7.702 99.7375 7.516 98.3528 7.516C96.9681 7.516 95.7901 7.578 94.8188 7.702V9.531L97.4848 9.779C99.1175 9.94433 100.481 10.2233 101.577 10.616C102.672 10.988 103.55 11.484 104.212 12.104C104.894 12.724 105.369 13.4577 105.638 14.305C105.927 15.1523 106.072 16.1237 106.072 17.219C106.072 18.7897 105.865 20.1123 105.452 21.187C105.038 22.2617 104.542 23.078 103.964 23.636C103.488 24.0907 102.899 24.4523 102.197 24.721C101.494 24.969 100.75 25.155 99.9648 25.279C99.1795 25.403 98.3838 25.4753 97.5778 25.496C96.7925 25.5373 96.0795 25.558 95.4388 25.558C93.8268 25.558 92.2768 25.4753 90.7888 25.31C89.3008 25.1447 87.8645 24.907 86.4798 24.597ZM115.628 18.676V19.978C116 20.0193 116.372 20.0503 116.744 20.071C117.116 20.0917 117.488 20.102 117.86 20.102C120.174 20.102 122.51 19.73 124.866 18.986L125.734 24.442C122.944 25.186 120.195 25.558 117.488 25.558C114.016 25.558 111.505 24.752 109.955 23.14C108.405 21.5073 107.63 19.0273 107.63 15.7C107.63 12.3727 108.405 9.903 109.955 8.291C111.525 6.65833 114.036 5.842 117.488 5.842C119.224 5.842 120.67 5.95567 121.828 6.183C122.985 6.38967 123.915 6.75133 124.618 7.268C125.341 7.764 125.847 8.446 126.137 9.314C126.447 10.1613 126.602 11.236 126.602 12.538C126.602 13.6127 126.416 14.5427 126.044 15.328C125.692 16.0927 125.093 16.723 124.246 17.219C123.398 17.715 122.272 18.087 120.867 18.335C119.461 18.5623 117.715 18.676 115.628 18.676ZM115.628 12.848V14.367H117.147C118.056 14.367 118.707 14.274 119.1 14.088C119.513 13.902 119.72 13.468 119.72 12.786V11.267H118.201C117.291 11.267 116.63 11.36 116.217 11.546C115.824 11.732 115.628 12.166 115.628 12.848ZM146.099 6.4H153.539V20.133H154.686C155.596 20.133 156.247 20.04 156.639 19.854C157.053 19.668 157.259 19.234 157.259 18.552V6.4H164.699V25H160.979L158.809 22.892C157.321 24.6693 155.203 25.558 152.454 25.558C150.243 25.558 148.631 25.093 147.618 24.163C146.606 23.2123 146.099 21.6313 146.099 19.42V6.4ZM167.92 0.819999L175.36 0.261999V19.668C175.752 19.7507 176.104 19.8127 176.414 19.854C176.724 19.8953 176.982 19.9263 177.189 19.947L176.848 25.403C173.686 25.403 171.588 25.217 170.555 24.845C169.687 24.535 169.025 24.132 168.571 23.636C168.137 23.14 167.92 22.427 167.92 21.497V0.819999Z" fill="white"/>
</svg>
