<svg width="13" height="17" viewBox="0 0 13 17" fill="none" xmlns="http://www.w3.org/2000/svg">
<g clip-path="url(#clip0_519_1646)">
<path d="M5.83199 16.657C0.913047 9.66314 0 8.94535 0 6.375C0 2.85417 2.91014 0 6.5 0C10.0899 0 13 2.85417 13 6.375C13 8.94535 12.087 9.66314 7.16801 16.657C6.84521 17.1144 6.15476 17.1143 5.83199 16.657ZM6.5 9.03125C7.99578 9.03125 9.20833 7.84201 9.20833 6.375C9.20833 4.90799 7.99578 3.71875 6.5 3.71875C5.00422 3.71875 3.79167 4.90799 3.79167 6.375C3.79167 7.84201 5.00422 9.03125 6.5 9.03125Z" fill="#55AB67"/>
</g>
<defs>
<clipPath id="clip0_519_1646">
<rect width="13" height="17" fill="white"/>
</clipPath>
</defs>
</svg>
