<svg width="24" height="24" viewBox="0 0 24 24" fill="none" xmlns="http://www.w3.org/2000/svg">
<rect width="24" height="23.9996" rx="11.9998" fill="white"/>
<path d="M10 10.9997H7.101L7.102 10.9907C7.23257 10.3514 7.48813 9.74409 7.854 9.20374C8.39845 8.40156 9.16215 7.7729 10.054 7.39274C10.356 7.26474 10.671 7.16674 10.992 7.10174C11.6579 6.96674 12.3441 6.96674 13.01 7.10174C13.967 7.29784 14.8451 7.77116 15.535 8.46274L16.951 7.05074C16.3128 6.41238 15.5578 5.90278 14.727 5.54974C14.3033 5.37037 13.8628 5.2337 13.412 5.14174C12.4818 4.95275 11.5232 4.95275 10.593 5.14174C10.1419 5.23408 9.70101 5.37108 9.277 5.55074C8.02753 6.08084 6.95793 6.96083 6.197 8.08474C5.68489 8.84259 5.32676 9.69373 5.143 10.5897C5.115 10.7247 5.1 10.8627 5.08 10.9997H2L6 14.9997L10 10.9997ZM14 12.9997H16.899L16.898 13.0077C16.6367 14.2895 15.8812 15.4168 14.795 16.1457C14.2548 16.5119 13.6475 16.7675 13.008 16.8977C12.3424 17.0327 11.6566 17.0327 10.991 16.8977C10.3516 16.7672 9.74435 16.5116 9.204 16.1457C8.93862 15.9662 8.69085 15.762 8.464 15.5357L7.05 16.9497C7.68851 17.5879 8.44392 18.0972 9.275 18.4497C9.699 18.6297 10.142 18.7667 10.59 18.8577C11.5198 19.0468 12.4782 19.0468 13.408 18.8577C15.2005 18.4857 16.7773 17.4292 17.803 15.9127C18.3146 15.1555 18.6724 14.305 18.856 13.4097C18.883 13.2747 18.899 13.1367 18.919 12.9997H22L18 8.99974L14 12.9997Z" fill="black"/>
</svg>
