<svg width="17" height="17" viewBox="0 0 17 17" fill="none" xmlns="http://www.w3.org/2000/svg">
<path d="M15.7407 13.6376L11.9138 9.81038C12.5104 8.8311 12.8251 7.70611 12.8232 6.55939C12.8232 3.09875 9.8247 0.100952 6.36439 0.100952C5.54171 0.100819 4.72705 0.262777 3.96696 0.577576C3.20687 0.892374 2.51623 1.35385 1.9345 1.93563C1.35277 2.51742 0.891345 3.20812 0.576576 3.96828C0.261808 4.72844 0.0998655 5.54318 0.0999986 6.36595C0.0999986 9.82557 3.09852 12.8244 6.55782 12.8244C7.66664 12.8254 8.75563 12.5303 9.71229 11.9696L13.5594 15.8191C13.7404 15.9996 13.9854 16.101 14.241 16.101C14.4965 16.101 14.7416 15.9996 14.9225 15.8191L15.8774 14.8641C16.2531 14.4884 16.1164 14.0134 15.7407 13.6376ZM2.02813 6.36595C2.028 5.79636 2.14006 5.23233 2.35792 4.70606C2.57577 4.17979 2.89516 3.7016 3.29783 3.2988C3.70051 2.89599 4.17858 2.57646 4.70474 2.35846C5.23091 2.14046 5.79486 2.02825 6.36439 2.02825C8.76038 2.02825 10.8951 4.16216 10.8951 6.55939C10.8948 7.70973 10.4378 8.81289 9.62444 9.6263C8.8111 10.4397 7.70805 10.8968 6.55782 10.8971C4.16183 10.8961 2.02813 8.76115 2.02813 6.36595Z" fill="#55AB67"/>
</svg>
